<svg xmlns="http://www.w3.org/2000/svg" viewBox="0 0 63.07 59.79"><defs><style>.cls-1{fill:#f2f2f2;}.cls-2{fill:#fff;}</style></defs><title>logo</title><g id="Logo"><path id="shadow" class="cls-1" d="M78.32,48c-1.56-1.69-3.74-2.87-9.3-8.11-2.65-2.5-4.69-4.45-6.83-6.87-6.81-7.69-8.61-11.92-12.56-11.91-3.4,0-5.2,3.17-10.77,9.68a104.69,104.69,0,0,1-8.35,8.83,78.11,78.11,0,0,0-7,6.43,45.73,45.73,0,0,0-3,3.64c-4.7,6.52-.25,23,.31,25a15.74,15.74,0,0,1,12.56-7.45c7.45-.33,15,5,16.16,12.66,1.59-8.1,9.64-13.3,17.05-12.66s11.36,7,11.66,7.45C83.57,58.53,81.51,51.43,78.32,48ZM42.83,35.71a1.31,1.31,0,1,1,1.3-1.3A1.31,1.31,0,0,1,42.83,35.71Zm6.68-3.61a5,5,0,1,1,5-5A5,5,0,0,1,49.51,32.1Zm6.3,3.61a1.31,1.31,0,0,1,0-2.61,1.31,1.31,0,1,1,0,2.61Z" transform="translate(-18.47 -20.1)"/><path id="main" class="cls-2" d="M78.34,45.86c-3.45-5.17-6.86-4.8-16.15-14.62-6.81-7.19-8.61-11.15-12.56-11.14-3.4,0-5.2,3-10.77,9-11,12-13.66,11.15-17,16.71-2.24,3.68-5.67,11.57-.9,24.37a15.94,15.94,0,0,1,12.56-7c7.45-.31,15,4.62,16.16,11.83,1.59-7.57,9.64-12.44,17.05-11.83a16.16,16.16,0,0,1,11.66,7C83.69,57.71,81.27,50.24,78.34,45.86ZM42.83,35.71a1.31,1.31,0,1,1,1.3-1.3A1.31,1.31,0,0,1,42.83,35.71Zm6.68-3.61a5,5,0,1,1,5-5A5,5,0,0,1,49.51,32.1Zm6.3,3.61a1.31,1.31,0,0,1,0-2.61,1.31,1.31,0,1,1,0,2.61Z" transform="translate(-18.47 -20.1)"/><polygon class="cls-2" points="31.04 7 31.04 7 31.04 7 31.04 7 31.04 7"/><circle class="cls-2" cx="31.04" cy="7" r="1"/></g></svg>